<svg width="276" height="119" viewBox="0 0 276 119" fill="none" xmlns="http://www.w3.org/2000/svg">
<path d="M44.4 77.2997C66.16 77.2997 83.8 61.1148 83.8 41.1498C83.8 21.1848 66.16 5 44.4 5C22.64 5 5 21.1848 5 41.1498C5 61.1148 22.64 77.2997 44.4 77.2997Z" stroke="#0081C8" stroke-width="9.5"/>
<path d="M138 77.2997C159.76 77.2997 177.4 61.1148 177.4 41.1498C177.4 21.1848 159.76 5 138 5C116.24 5 98.6 21.1848 98.6 41.1498C98.6 61.1148 116.24 77.2997 138 77.2997Z" stroke="black" stroke-width="9.5"/>
<path d="M231.6 77.2997C253.36 77.2997 271 61.1148 271 41.1498C271 21.1848 253.36 5 231.6 5C209.84 5 192.2 21.1848 192.2 41.1498C192.2 61.1148 209.84 77.2997 231.6 77.2997Z" stroke="#EE334E" stroke-width="9.5"/>
<path d="M91.2 114C112.96 114 130.6 97.8152 130.6 77.8502C130.6 57.8852 112.96 41.7003 91.2 41.7003C69.44 41.7003 51.8 57.8852 51.8 77.8502C51.8 97.8152 69.44 114 91.2 114Z" stroke="#FCB131" stroke-width="9.5"/>
<path d="M184.8 114C206.56 114 224.2 97.8152 224.2 77.8502C224.2 57.8852 206.56 41.7003 184.8 41.7003C163.04 41.7003 145.4 57.8852 145.4 77.8502C145.4 97.8152 163.04 114 184.8 114Z" stroke="#00A651" stroke-width="9.5"/>
<path d="M75.92 19.4599C81.035 25.7173 83.8 33.3281 83.8 41.1498C83.8 48.9716 81.035 56.5823 75.92 62.8397" stroke="#0081C8" stroke-width="9.5"/>
<path d="M169.52 19.4599C174.635 25.7173 177.4 33.3281 177.4 41.1498C177.4 48.9716 174.635 56.5823 169.52 62.8397M138 77.2997C129.475 77.2997 121.18 74.7627 114.36 70.0697" stroke="black" stroke-width="9.5"/>
<path d="M231.6 77.2997C223.075 77.2997 214.78 74.7627 207.96 70.0697" stroke="#EE334E" stroke-width="9.5"/>
</svg>
