<svg width="475" height="219" viewBox="0 0 475 219" fill="none" xmlns="http://www.w3.org/2000/svg">
<path d="M114.4 77.2997C136.16 77.2997 153.8 61.1148 153.8 41.1498C153.8 21.1848 136.16 5 114.4 5C92.64 5 75 21.1848 75 41.1498C75 61.1148 92.64 77.2997 114.4 77.2997Z" stroke="#0081C8" stroke-width="9.5"/>
<path d="M208 77.2997C229.76 77.2997 247.4 61.1148 247.4 41.1498C247.4 21.1848 229.76 5 208 5C186.24 5 168.6 21.1848 168.6 41.1498C168.6 61.1148 186.24 77.2997 208 77.2997Z" stroke="black" stroke-width="9.5"/>
<path d="M301.6 77.2997C323.36 77.2997 341 61.1148 341 41.1498C341 21.1848 323.36 5 301.6 5C279.84 5 262.2 21.1848 262.2 41.1498C262.2 61.1148 279.84 77.2997 301.6 77.2997Z" stroke="#EE334E" stroke-width="9.5"/>
<path d="M161.2 114C182.96 114 200.6 97.8152 200.6 77.8502C200.6 57.8852 182.96 41.7003 161.2 41.7003C139.44 41.7003 121.8 57.8852 121.8 77.8502C121.8 97.8152 139.44 114 161.2 114Z" stroke="#FCB131" stroke-width="9.5"/>
<path d="M254.8 114C276.56 114 294.2 97.8152 294.2 77.8502C294.2 57.8852 276.56 41.7003 254.8 41.7003C233.04 41.7003 215.4 57.8852 215.4 77.8502C215.4 97.8152 233.04 114 254.8 114Z" stroke="#00A651" stroke-width="9.5"/>
<path d="M145.92 19.4599C151.035 25.7173 153.8 33.3281 153.8 41.1498C153.8 48.9716 151.035 56.5823 145.92 62.8397" stroke="#0081C8" stroke-width="9.5"/>
<path d="M239.52 19.4599C244.635 25.7173 247.4 33.3281 247.4 41.1498C247.4 48.9716 244.635 56.5823 239.52 62.8397M208 77.2997C199.475 77.2997 191.18 74.7627 184.36 70.0697" stroke="black" stroke-width="9.5"/>
<path d="M301.6 77.2997C293.075 77.2997 284.78 74.7627 277.96 70.0697" stroke="#EE334E" stroke-width="9.5"/>
<path d="M8.712 192.168L5.736 191.88C5.608 191.24 5.544 186.888 5.544 178.824C5.544 170.696 5.576 165 5.64 161.736C4.552 160.712 3.464 159.144 2.376 157.032C1.352 154.856 0.84 153 0.84 151.464C0.84 151.4 2.504 151.304 5.832 151.176C5.896 148.488 5.928 145.384 5.928 141.864C5.928 138.344 5.896 136.552 5.832 136.488C5.128 135.784 4.2 134.12 3.048 131.496C1.96 128.808 1.416 127.08 1.416 126.312C2.12 125.608 13.224 125.256 34.728 125.256C40.104 125.256 42.792 125.384 42.792 125.64C42.792 126.984 42.472 128.456 41.832 130.056C41.256 131.656 40.616 132.936 39.912 133.896C39.272 134.792 38.856 135.208 38.664 135.144C38.472 135.08 37.32 135.048 35.208 135.048C33.096 135.048 29.832 135.208 25.416 135.528C21 135.784 18.6 136.104 18.216 136.488C17.832 136.808 17.64 140.264 17.64 146.856L17.736 150.888C23.752 150.76 28.36 150.696 31.56 150.696C34.76 150.696 36.36 150.792 36.36 150.984C36.36 153.48 35.592 156.104 34.056 158.856C33.544 159.816 33.224 160.296 33.096 160.296H32.136C30.088 160.296 27.24 160.456 23.592 160.776C19.944 161.096 18.024 161.352 17.832 161.544C17.64 161.736 17.544 165.736 17.544 173.544C17.544 181.352 17.96 186.664 18.792 189.48C18.792 190.312 17.544 190.952 15.048 191.4C12.616 191.912 10.504 192.168 8.712 192.168ZM67.8848 185.352L67.7888 183.336L67.6927 183.144C66.1568 185.512 64.2048 187.4 61.8368 188.808C59.5328 190.216 57.2608 190.92 55.0208 190.92C48.3008 190.92 44.4608 185.704 43.5008 175.272C43.3728 173.608 43.3088 169.32 43.3088 162.408C43.3088 155.496 43.5968 151.4 44.1728 150.12C45.8368 148.776 48.5248 148.104 52.2368 148.104C53.7088 148.104 54.6048 148.264 54.9248 148.584C54.9248 148.648 54.8928 149.512 54.8288 151.176C54.5088 156.04 54.3488 159.784 54.3488 162.408C54.3488 165.032 54.3808 166.984 54.4448 168.264C54.5088 169.48 54.5408 170.28 54.5408 170.664C54.6048 170.984 54.7008 171.592 54.8288 172.488C55.0208 173.384 55.2768 174.152 55.5968 174.792C56.5568 176.648 58.0288 177.576 60.0128 177.576C62.0608 177.576 63.8528 176.584 65.3888 174.6C66.9888 172.552 67.7568 171.112 67.6927 170.28V167.016C67.6927 155.304 67.8848 149 68.2688 148.104C68.5888 147.528 69.5808 146.92 71.2448 146.28C72.9728 145.64 74.6688 145.32 76.3328 145.32C77.9968 145.32 78.9568 145.448 79.2128 145.704L79.0208 150.216C78.6368 159.368 78.4448 166.44 78.4448 171.432C78.4448 176.424 78.5728 179.592 78.8288 180.936C79.2768 184.136 80.1408 186.696 81.4208 188.616C81.4208 189.256 80.1088 190.28 77.4848 191.688C74.8608 193.096 72.6208 193.8 70.7648 193.8C70.2528 193.8 69.6768 192.84 69.0368 190.92C68.3968 189 68.0128 187.144 67.8848 185.352ZM99.7598 167.4L99.8558 170.952V178.248C99.8558 185.096 99.7278 188.648 99.4718 188.904C98.6398 189.736 97.1998 190.376 95.1518 190.824C93.1038 191.272 91.4078 191.496 90.0638 191.496C88.7838 191.496 88.1438 191.4 88.1438 191.208C88.5918 188.328 88.8158 183.592 88.8158 177L88.5278 155.4C88.5278 151.432 88.6878 149.288 89.0078 148.968C89.7118 148.264 90.9278 147.656 92.6558 147.144C94.3838 146.568 95.9838 146.28 97.4557 146.28C98.9918 146.28 99.7598 146.44 99.7598 146.76C99.5678 148.296 99.4718 149.832 99.4718 151.368C99.4718 152.904 99.5678 153.672 99.7598 153.672L100.048 153.48C100.368 153.032 100.848 152.488 101.488 151.848C102.128 151.144 103.472 150.248 105.52 149.16C107.632 148.008 109.616 147.432 111.472 147.432C113.392 147.432 114.992 147.784 116.272 148.488C117.616 149.128 118.704 149.928 119.536 150.888C120.368 151.848 121.072 153.224 121.648 155.016C122.288 156.808 122.768 158.472 123.088 160.008C123.408 161.544 123.664 163.592 123.856 166.152C124.048 169.672 124.144 174.152 124.144 179.592L123.856 190.824C123.856 191.272 122.8 191.688 120.688 192.072C118.576 192.52 116.88 192.744 115.6 192.744L112.432 192.264C113.072 186.504 113.392 180.936 113.392 175.56C113.392 170.12 113.04 166.056 112.336 163.368C111.632 160.616 110.224 159.24 108.112 159.24C106 159.24 104.272 159.816 102.928 160.968C101.648 162.12 100.816 163.272 100.432 164.424L99.7598 166.056V167.4ZM178.1 191.88C168.564 191.88 161.492 189.128 156.884 183.624C152.34 178.12 150.068 171.208 150.068 162.888C150.068 158.856 150.548 155.08 151.508 151.56C152.468 148.04 153.364 145.544 154.196 144.072C155.028 142.6 155.7 141.736 156.212 141.48C156.724 141.16 158.74 141 162.26 141H164.084C164.084 137.8 164.692 135.016 165.908 132.648C167.188 130.28 168.82 128.52 170.804 127.368C174.516 125.256 178.036 124.2 181.364 124.2C199.156 124.2 208.052 135.4 208.052 157.8C208.052 164.776 206.868 170.984 204.5 176.424C203.156 179.496 201.396 182.152 199.22 184.392C197.044 186.568 194.132 188.36 190.484 189.768C186.9 191.176 182.772 191.88 178.1 191.88ZM195.667 157.032C195.667 141.992 191.188 134.472 182.228 134.472C179.668 134.472 177.684 135.208 176.276 136.68C174.932 138.152 174.26 140.04 174.26 142.344C174.26 144.584 174.964 147.24 176.372 150.312C177.844 153.384 179.316 155.816 180.788 157.608L182.9 160.296C182.9 161.064 181.716 161.8 179.348 162.504C176.98 163.144 175.092 163.464 173.684 163.464C173.364 163.464 172.692 162.856 171.668 161.64C170.708 160.424 169.556 158.568 168.212 156.072C166.932 153.512 166.004 150.824 165.428 148.008C164.468 148.968 163.7 150.92 163.124 153.864C162.548 156.808 162.26 159.656 162.26 162.408C162.26 167.784 163.764 172.392 166.772 176.232C169.78 180.008 173.588 181.896 178.196 181.896C189.844 181.896 195.667 173.608 195.667 157.032ZM215.738 175.368L216.122 140.616C216.122 135.56 216.058 132.136 215.93 130.344C215.802 128.552 215.738 127.592 215.738 127.464C215.738 126.824 216.794 126.088 218.906 125.256C221.082 124.424 223.002 124.008 224.666 124.008C226.33 124.008 227.162 124.136 227.162 124.392C226.842 126.76 226.682 135.08 226.682 149.352L226.49 172.872C226.49 177.288 226.554 180.008 226.682 181.032C227.002 183.848 227.93 186.408 229.466 188.712C229.466 189.352 228.154 190.376 225.53 191.784C222.906 193.192 220.666 193.896 218.81 193.896C218.298 193.896 217.722 192.936 217.082 191.016C216.442 189.096 216.058 187.432 215.93 186.024C215.802 184.616 215.738 181.064 215.738 175.368ZM271.577 162.216L271.673 187.752C271.673 192.744 271.001 197.192 269.657 201.096C268.377 205 266.777 208.008 264.857 210.12C263.001 212.232 260.857 213.96 258.425 215.304C254.457 217.544 250.425 218.664 246.329 218.664C246.137 218.664 245.753 218.184 245.177 217.224C244.601 216.264 244.057 214.952 243.545 213.288C243.033 211.688 242.777 210.184 242.777 208.776C245.209 208.776 247.641 208.296 250.073 207.336C252.505 206.44 254.201 205.448 255.161 204.36C256.121 203.336 257.081 202.024 258.041 200.424C260.025 197.288 261.017 192.2 261.017 185.16L260.921 182.376C260.921 181.992 260.857 181.8 260.729 181.8C260.601 181.8 260.473 181.896 260.345 182.088C260.217 182.28 260.057 182.536 259.865 182.856C259.673 183.112 259.193 183.624 258.425 184.392C257.721 185.096 256.953 185.736 256.121 186.312C253.881 187.848 251.609 188.616 249.305 188.616C247.065 188.616 245.273 188.328 243.929 187.752C242.649 187.176 241.561 186.44 240.665 185.544C239.833 184.648 239.129 183.4 238.553 181.8C237.977 180.136 237.529 178.6 237.209 177.192C236.889 175.784 236.665 173.864 236.537 171.432C236.281 168.04 236.153 164.52 236.153 160.872C236.153 155.816 236.409 151.688 236.921 148.488L237.209 147.144C237.209 146.696 238.169 146.248 240.089 145.8C242.073 145.352 243.705 145.128 244.984 145.128L248.057 145.608C247.353 151.944 247.001 157.288 247.001 161.64C247.001 165.992 247.449 169.608 248.345 172.488C249.241 175.368 250.745 176.808 252.857 176.808C254.969 176.808 256.633 176.2 257.849 174.984C259.129 173.704 259.929 172.456 260.249 171.24L260.729 169.416C260.601 165.384 260.536 161.064 260.536 156.456C260.536 151.784 260.697 149.288 261.017 148.968C261.849 148.136 263.289 147.496 265.337 147.048C267.449 146.6 269.145 146.376 270.425 146.376C271.705 146.376 272.345 146.472 272.345 146.664C271.833 149.672 271.577 154.856 271.577 162.216ZM281.66 177.096L281.372 154.536C281.372 150.44 281.532 148.232 281.852 147.912C282.62 147.208 283.804 146.568 285.404 145.992C287.004 145.352 288.54 145.032 290.012 145.032C291.484 145.032 292.22 145.16 292.22 145.416C291.964 148.232 291.836 150.376 291.836 151.848C291.836 153.32 291.9 154.056 292.028 154.056C292.156 154.056 292.348 153.928 292.604 153.672C292.86 153.352 293.308 152.904 293.948 152.328C294.652 151.688 295.9 150.856 297.692 149.832C299.548 148.744 301.244 148.2 302.78 148.2C306.94 148.2 310.076 150.056 312.188 153.768C315.836 148.648 319.868 146.088 324.284 146.088C328.252 146.088 331.1 147.784 332.828 151.176C334.62 154.952 335.676 158.728 335.996 162.504C336.38 168.008 336.572 173.704 336.572 179.592L336.188 190.824C336.188 191.272 335.132 191.688 333.02 192.072C330.908 192.52 329.212 192.744 327.932 192.744L324.86 192.264C325.564 185.928 325.916 180.808 325.916 176.904C325.916 173 325.852 170.216 325.724 168.552C325.66 166.824 325.436 165.128 325.052 163.464C324.668 161.736 324.06 160.52 323.228 159.816C322.46 159.048 321.468 158.664 320.252 158.664C319.036 158.664 317.948 159.016 316.988 159.72C316.028 160.36 315.324 161 314.876 161.64C314.492 162.28 314.3 162.696 314.3 162.888C314.492 164.936 314.588 169.672 314.588 177.096L314.204 184.68C314.204 185.192 313.18 185.64 311.132 186.024C309.084 186.408 307.42 186.6 306.14 186.6L303.068 186.12C303.644 180.936 303.932 176.104 303.932 171.624C303.932 167.08 303.676 163.912 303.164 162.12C302.716 160.264 301.468 159.336 299.42 159.336C297.372 159.336 295.644 160.36 294.236 162.408C292.828 164.456 292.124 166.024 292.124 167.112V169.128L292.22 179.304C292.22 185.576 292.092 188.872 291.836 189.192C290.236 190.728 286.876 191.496 281.756 191.496C281.244 191.496 280.988 191.4 280.988 191.208C281.436 188.456 281.66 183.752 281.66 177.096ZM356.054 142.44L355.958 146.952C372.982 146.952 381.494 153.544 381.494 166.728C381.494 170.312 380.758 173.576 379.286 176.52C377.878 179.4 376.118 181.704 374.006 183.432C371.894 185.096 369.59 186.504 367.094 187.656C362.806 189.64 358.966 190.632 355.574 190.632V192.072C355.574 201.672 355.83 208.072 356.342 211.272C355.51 212.104 354.07 212.744 352.022 213.192C349.974 213.704 348.31 213.96 347.03 213.96C345.75 213.96 345.11 213.864 345.11 213.672C344.854 211.624 344.726 207.4 344.726 201L345.206 156.36C345.206 151.112 345.11 147.464 344.918 145.416C345.686 144.648 346.966 143.912 348.758 143.208C350.614 142.504 352.214 142.152 353.558 142.152C354.902 142.152 355.734 142.248 356.054 142.44ZM355.574 175.176L355.67 179.976C359.574 179.976 362.998 178.856 365.942 176.616C368.886 174.376 370.358 171.144 370.358 166.92C370.358 160.008 365.526 156.552 355.862 156.552L355.766 157.8C355.766 158.632 355.766 159.72 355.766 161.064L355.574 175.176ZM395.991 131.688C397.783 131.688 399.223 132.264 400.311 133.416C401.399 134.568 401.943 136.072 401.943 137.928C401.943 139.784 401.207 141.384 399.735 142.728C398.327 144.008 396.727 144.648 394.935 144.648C393.207 144.648 391.799 144.104 390.711 143.016C389.687 141.864 389.175 140.36 389.175 138.504C389.175 136.648 389.879 135.048 391.287 133.704C392.695 132.36 394.263 131.688 395.991 131.688ZM400.887 155.592L400.695 171.144C400.695 176.136 400.823 179.816 401.079 182.184C401.399 184.488 402.231 186.664 403.575 188.712C403.575 189.352 402.263 190.376 399.639 191.784C397.015 193.192 394.775 193.896 392.919 193.896C392.343 193.896 391.767 192.936 391.191 191.016C390.615 189.096 390.231 187.272 390.039 185.544C389.911 183.816 389.847 177.992 389.847 168.072C389.847 158.152 390.071 152.744 390.519 151.848C391.991 150.696 394.583 150.12 398.295 150.12C399.767 150.12 400.663 150.312 400.983 150.696L400.887 155.592ZM429.853 191.784C422.557 191.784 417.149 189.928 413.629 186.216C410.109 182.504 408.349 177.832 408.349 172.2C408.349 164.328 410.973 158.056 416.221 153.384C421.533 148.712 427.997 146.376 435.613 146.376C437.085 146.376 437.949 146.408 438.205 146.472C438.589 146.792 438.781 148.328 438.781 151.08C438.781 153.832 438.397 155.496 437.629 156.072H436.957C432.029 156.072 428.029 157.224 424.957 159.528C423.677 160.488 422.557 161.992 421.597 164.04C420.637 166.088 420.157 168.552 420.157 171.432C420.157 174.312 421.021 176.712 422.749 178.632C424.477 180.488 427.261 181.416 431.101 181.416C434.109 181.416 436.765 180.84 439.069 179.688C439.325 179.56 439.485 179.496 439.549 179.496C440.061 180.008 440.317 181.736 440.317 184.68C440.317 187.624 439.965 189.384 439.261 189.96C437.149 191.176 434.013 191.784 429.853 191.784ZM474.089 177.96C474.089 181.416 472.457 184.52 469.193 187.272C465.993 189.96 462.505 191.88 458.729 193.032C455.017 194.248 451.753 194.856 448.937 194.856C448.617 194.856 448.169 194.472 447.593 193.704C445.993 191.592 445.193 189.128 445.193 186.312V185.64C450.185 185.64 453.993 184.776 456.617 183.048C459.241 181.32 460.553 179.528 460.553 177.672C460.553 176.456 459.753 175.176 458.153 173.832C456.553 172.488 454.793 171.304 452.873 170.28C450.953 169.256 449.193 167.912 447.593 166.248C445.993 164.52 445.193 162.728 445.193 160.872C445.193 156.968 447.625 153.384 452.489 150.12C457.353 146.856 462.537 145.224 468.041 145.224C468.681 145.224 469.513 146.12 470.536 147.912C471.561 149.64 472.105 151.432 472.169 153.288C470.889 153.288 468.969 153.672 466.409 154.44C461.353 156.04 458.825 158.024 458.825 160.392C458.825 162.056 461.321 164.328 466.312 167.208C468.233 168.296 469.993 169.8 471.593 171.72C473.193 173.64 474.025 175.72 474.089 177.96Z" fill="#2E367A"/>
</svg>
